<svg width="339" height="26" viewBox="0 0 339 26" fill="none" xmlns="http://www.w3.org/2000/svg">
<g clip-path="url(#clip0_1825_1698)">
<path d="M15.1634 15.6722L15.0257 0.550415H21.1617V25.3608H15.6004L6.00429 10.4106L6.14198 25.3667H0V0.556334H5.53137L15.1634 15.6781V15.6722Z" fill="url(#paint0_linear_1825_1698)"/>
<path d="M24.5437 16.0095C24.5437 11.4818 27.8362 6.15515 34.6845 6.15515C41.5329 6.15515 44.8254 11.4877 44.8254 16.045C44.8254 20.6022 41.5329 25.9348 34.6845 25.9348C27.8362 25.9348 24.5437 20.6022 24.5437 16.045V16.0154V16.0095ZM30.1708 16.0805C30.1708 18.7616 32.2361 20.7443 34.6845 20.7443C37.1329 20.7443 39.1922 18.7616 39.1922 16.045C39.1922 13.3284 37.1269 11.3516 34.6845 11.3516C32.2421 11.3516 30.1708 13.3284 30.1708 16.045V16.0805Z" fill="url(#paint1_linear_1825_1698)"/>
<path d="M57.6669 25.3666H52.2732L45.5206 6.75879H51.3513L54.979 18.3591L58.6067 6.75879H64.4434L57.6549 25.3666H57.6669Z" fill="url(#paint2_linear_1825_1698)"/>
<path d="M86.2754 25.3667H80.6482V23.3544C79.6305 25.1655 77.2899 26.0059 75.0869 26.0059C69.1185 26.0059 65.6225 21.3777 65.6225 16.0451C65.6225 9.94311 70.0644 6.11975 75.0869 6.11975C78.1699 6.11975 79.8999 7.59346 80.6482 8.73573V6.75303H86.2754V25.3608V25.3667ZM71.2497 16.1457C71.2497 17.8561 72.5367 20.8095 75.931 20.8095C77.9304 20.8095 79.1576 19.8684 79.864 18.7321C80.3369 17.9923 80.5764 17.1874 80.6422 16.3528C80.7081 15.5183 80.5405 14.6779 80.1693 13.9026C79.5587 12.6301 78.2716 11.3221 75.8951 11.3221C72.6744 11.3221 71.2497 14.0091 71.2497 16.1161V16.1516V16.1457Z" fill="url(#paint3_linear_1825_1698)"/>
<path d="M99.218 11.9851C99.1821 11.5826 99.1162 10.5764 97.452 10.5764C96.2667 10.5764 95.8597 11.3103 95.8597 11.8134C95.8597 12.6538 97.2485 13.222 98.7451 13.66C101.93 14.53 105.318 15.4711 105.318 19.4897C105.318 23.5084 101.822 25.9942 97.6556 25.9942C94.8061 25.9942 90.5019 24.7217 89.9931 19.8212H95.5903C95.8297 21.5316 97.488 21.5316 97.7274 21.5316C98.6733 21.5316 99.6909 20.9989 99.6909 20.0934C99.6909 18.815 98.3021 18.6493 94.7043 17.2762C92.2619 16.5068 90.2265 14.9325 90.2265 12.4171C90.2265 8.56415 93.6148 6.11389 97.5179 6.11389C99.9962 6.11389 104.27 7.08453 104.743 11.9791H99.218V11.9851Z" fill="url(#paint4_linear_1825_1698)"/>
<path d="M108.023 15.909C108.023 11.3813 111.316 6.05469 118.164 6.05469C125.013 6.05469 128.305 11.3873 128.305 15.9445C128.305 20.5018 125.019 25.8343 118.164 25.8343C111.31 25.8343 108.023 20.5018 108.023 15.9445V15.9149V15.909ZM113.657 15.98C113.657 18.6611 115.722 20.6438 118.164 20.6438C120.607 20.6438 122.678 18.6611 122.678 15.9445C122.678 13.2279 120.607 11.2511 118.164 11.2511C115.722 11.2511 113.657 13.2279 113.657 15.9445V15.98Z" fill="url(#paint5_linear_1825_1698)"/>
<path d="M132.136 0.556396H137.763V25.3668H132.136V0.556396Z" fill="url(#paint6_linear_1825_1698)"/>
<path d="M180.314 0.473511H185.941V8.38655C186.959 6.71162 188.856 6.04282 190.856 6.04282C193.735 6.04282 195.429 7.04897 196.447 8.69431C197.465 10.3041 197.734 12.5177 197.734 14.8969V25.2898H192.107V15.1632C192.107 14.1216 191.969 13.151 191.532 12.4466C191.059 11.7423 190.311 11.2689 189.09 11.2689C187.533 11.2689 186.719 11.9732 186.342 12.7781C185.935 13.583 185.935 14.4885 185.935 14.9561V25.2839H180.308V0.473511H180.314Z" fill="url(#paint7_linear_1825_1698)"/>
<path d="M224.542 6.676H229.798V8.6587C229.798 8.6587 230.133 7.98399 230.953 7.35071C231.767 6.676 233.09 6.04272 235.054 6.04272C236.347 6.04272 237.969 6.37416 239.364 7.81828C239.771 8.22074 240.142 8.72381 240.483 9.36301C240.855 8.79483 241.298 8.22074 241.836 7.75317C242.956 6.74703 244.482 6.04272 246.446 6.04272C247.769 6.04272 249.87 6.34457 251.396 7.91889C253.162 9.75955 253.432 11.0024 253.432 15.1276V25.2897H247.805V15.3999C247.805 14.6305 247.805 13.6243 247.433 12.7839C247.092 11.9139 246.38 11.2747 244.919 11.2747C243.363 11.2747 242.579 11.979 242.207 12.8135C241.8 13.6539 241.8 14.595 241.8 15.1276V25.2897H236.167V15.1631C236.167 14.6601 236.167 13.6835 235.832 12.849C235.461 11.979 234.778 11.2747 233.354 11.2747C231.761 11.2747 230.983 12.0145 230.57 12.92C230.163 13.8256 230.163 14.8317 230.163 15.3999V25.2897H224.536V6.676H224.542Z" fill="url(#paint8_linear_1825_1698)"/>
<path d="M257.538 0.473511H263.165V4.69932H257.538V0.473511ZM257.538 6.67611H263.165V25.2839H257.538V6.67611Z" fill="url(#paint9_linear_1825_1698)"/>
<path d="M286.745 18.2112C285.727 22.437 281.962 25.8934 276.879 25.8934C271.18 25.8934 266.804 21.4664 266.804 15.9325C266.804 10.3987 271.108 6.04272 276.742 6.04272C281.728 6.04272 285.763 9.2979 286.715 13.8552H281.016C280.405 12.5827 279.286 11.2392 276.945 11.2392C275.622 11.1741 274.503 11.6771 273.689 12.5472C272.91 13.4172 272.467 14.6246 272.467 15.9681C272.467 18.6847 274.263 20.6969 276.945 20.6969C279.286 20.6969 280.405 19.3594 281.016 18.2171H286.745V18.2112Z" fill="url(#paint10_linear_1825_1698)"/>
<path d="M310.224 25.2838H304.597V23.2716C303.579 25.0826 301.238 25.923 299.035 25.923C293.067 25.923 289.577 21.2948 289.577 15.9622C289.577 9.86022 294.019 6.03687 299.035 6.03687C302.118 6.03687 303.848 7.51057 304.597 8.65285V6.67015H310.224V25.2779V25.2838ZM295.204 16.0628C295.204 17.7733 296.491 20.7266 299.885 20.7266C301.891 20.7266 303.106 19.7856 303.818 18.6492C304.297 17.9094 304.531 17.1045 304.603 16.27C304.674 15.4355 304.501 14.595 304.124 13.8197C303.513 12.5472 302.226 11.2392 299.855 11.2392C296.629 11.2392 295.21 13.9262 295.21 16.0332V16.0687L295.204 16.0628Z" fill="url(#paint11_linear_1825_1698)"/>
<path d="M314.558 0.473511H320.185V25.2839H314.558V0.473511Z" fill="url(#paint12_linear_1825_1698)"/>
<path d="M332.895 11.902C332.859 11.4996 332.793 10.4934 331.129 10.4934C329.943 10.4934 329.536 11.2273 329.536 11.7304C329.536 12.5708 330.931 13.139 332.422 13.577C335.612 14.447 339.001 15.388 339.001 19.4067C339.001 23.4254 335.505 25.9111 331.338 25.9111C328.489 25.9111 324.178 24.6387 323.676 19.7381H329.267C329.506 21.4486 331.164 21.4486 331.404 21.4486C332.356 21.4486 333.373 20.9159 333.373 20.0104C333.373 18.732 331.985 18.5663 328.387 17.1932C325.944 16.4238 323.909 14.8495 323.909 12.3341C323.909 8.48115 327.303 6.03088 331.206 6.03088C333.685 6.03088 337.953 7.00152 338.432 11.8961H332.9L332.895 11.902Z" fill="url(#paint13_linear_1825_1698)"/>
<path d="M176.801 15.9977C175.34 21.863 170.192 25.7514 164.122 25.7514C156.25 25.7514 150.892 19.5488 150.892 12.8432C150.892 6.51036 155.843 0 164.05 0C172.257 0 176.124 6.00728 176.801 9.88982H170.084C169.372 8.04917 167.474 5.5634 164.014 5.5634C159.704 5.5634 157.297 9.28614 157.297 12.8017C157.297 16.56 159.871 20.1762 164.044 20.1762C168.216 20.1762 169.671 16.8559 170.084 15.9859H176.801V15.9977Z" fill="url(#paint14_linear_1825_1698)"/>
<path d="M206.893 17.9035C207.133 19.8803 209.03 21.1882 211.233 21.1882C213.029 21.1882 213.981 20.4188 214.657 19.4482H220.422C219.506 21.5256 218.183 23.1354 216.591 24.2067C215.029 25.3134 213.167 25.8875 211.233 25.8875C205.84 25.8875 201.266 21.5611 201.266 16.0273C201.266 10.8309 205.403 6.03687 211.132 6.03687C214.011 6.03687 216.489 7.14363 218.255 8.9902C220.632 11.5056 221.344 14.4885 220.901 17.9094H206.893V17.9035ZM215.37 13.6836C215.232 12.8136 214.083 10.7302 211.161 10.7302C208.24 10.7302 207.091 12.8076 206.953 13.6836H215.364H215.37Z" fill="url(#paint15_linear_1825_1698)"/>
</g>
<defs>
<linearGradient id="paint0_linear_1825_1698" x1="2.64596" y1="12.9615" x2="338.347" y2="12.9615" gradientUnits="userSpaceOnUse">
<stop stop-color="#00F9B9"/>
<stop offset="0.49" stop-color="#9191FC"/>
<stop offset="1" stop-color="#FFCEFF"/>
</linearGradient>
<linearGradient id="paint1_linear_1825_1698" x1="2.64567" y1="16.045" x2="338.347" y2="16.045" gradientUnits="userSpaceOnUse">
<stop stop-color="#00F9B9"/>
<stop offset="0.49" stop-color="#9191FC"/>
<stop offset="1" stop-color="#FFCEFF"/>
</linearGradient>
<linearGradient id="paint2_linear_1825_1698" x1="0.000524889" y1="16.0627" x2="338.348" y2="16.0627" gradientUnits="userSpaceOnUse">
<stop stop-color="#00F9B9"/>
<stop offset="0.49" stop-color="#9191FC"/>
<stop offset="1" stop-color="#FFCEFF"/>
</linearGradient>
<linearGradient id="paint3_linear_1825_1698" x1="2.64632" y1="16.0628" x2="338.348" y2="16.0628" gradientUnits="userSpaceOnUse">
<stop stop-color="#00F9B9"/>
<stop offset="0.49" stop-color="#9191FC"/>
<stop offset="1" stop-color="#FFCEFF"/>
</linearGradient>
<linearGradient id="paint4_linear_1825_1698" x1="2.64653" y1="16.0629" x2="338.348" y2="16.0629" gradientUnits="userSpaceOnUse">
<stop stop-color="#00F9B9"/>
<stop offset="0.49" stop-color="#9191FC"/>
<stop offset="1" stop-color="#FFCEFF"/>
</linearGradient>
<linearGradient id="paint5_linear_1825_1698" x1="2.64594" y1="15.9445" x2="338.348" y2="15.9445" gradientUnits="userSpaceOnUse">
<stop stop-color="#00F9B9"/>
<stop offset="0.49" stop-color="#9191FC"/>
<stop offset="1" stop-color="#FFCEFF"/>
</linearGradient>
<linearGradient id="paint6_linear_1825_1698" x1="2.64583" y1="4.8585e-05" x2="338.348" y2="4.8585e-05" gradientUnits="userSpaceOnUse">
<stop stop-color="#00F9B9"/>
<stop offset="0.49" stop-color="#9191FC"/>
<stop offset="1" stop-color="#FFCEFF"/>
</linearGradient>
<linearGradient id="paint7_linear_1825_1698" x1="2.64556" y1="12.8787" x2="338.347" y2="12.8787" gradientUnits="userSpaceOnUse">
<stop stop-color="#00F9B9"/>
<stop offset="0.49" stop-color="#9191FC"/>
<stop offset="1" stop-color="#FFCEFF"/>
</linearGradient>
<linearGradient id="paint8_linear_1825_1698" x1="2.64629" y1="15.6603" x2="338.348" y2="15.6603" gradientUnits="userSpaceOnUse">
<stop stop-color="#00F9B9"/>
<stop offset="0.49" stop-color="#9191FC"/>
<stop offset="1" stop-color="#FFCEFF"/>
</linearGradient>
<linearGradient id="paint9_linear_1825_1698" x1="2.64646" y1="12.8787" x2="338.348" y2="12.8787" gradientUnits="userSpaceOnUse">
<stop stop-color="#00F9B9"/>
<stop offset="0.49" stop-color="#9191FC"/>
<stop offset="1" stop-color="#FFCEFF"/>
</linearGradient>
<linearGradient id="paint10_linear_1825_1698" x1="2.64543" y1="15.9621" x2="338.347" y2="15.9621" gradientUnits="userSpaceOnUse">
<stop stop-color="#00F9B9"/>
<stop offset="0.49" stop-color="#9191FC"/>
<stop offset="1" stop-color="#FFCEFF"/>
</linearGradient>
<linearGradient id="paint11_linear_1825_1698" x1="2.64632" y1="15.98" x2="338.347" y2="15.98" gradientUnits="userSpaceOnUse">
<stop stop-color="#00F9B9"/>
<stop offset="0.49" stop-color="#9191FC"/>
<stop offset="1" stop-color="#FFCEFF"/>
</linearGradient>
<linearGradient id="paint12_linear_1825_1698" x1="2.64721" y1="12.8787" x2="338.347" y2="12.8787" gradientUnits="userSpaceOnUse">
<stop stop-color="#00F9B9"/>
<stop offset="0.49" stop-color="#9191FC"/>
<stop offset="1" stop-color="#FFCEFF"/>
</linearGradient>
<linearGradient id="paint13_linear_1825_1698" x1="2.6468" y1="15.9799" x2="338.348" y2="15.9799" gradientUnits="userSpaceOnUse">
<stop stop-color="#00F9B9"/>
<stop offset="0.49" stop-color="#9191FC"/>
<stop offset="1" stop-color="#FFCEFF"/>
</linearGradient>
<linearGradient id="paint14_linear_1825_1698" x1="2.64639" y1="12.8727" x2="338.348" y2="12.8727" gradientUnits="userSpaceOnUse">
<stop stop-color="#00F9B9"/>
<stop offset="0.49" stop-color="#9191FC"/>
<stop offset="1" stop-color="#FFCEFF"/>
</linearGradient>
<linearGradient id="paint15_linear_1825_1698" x1="2.64544" y1="15.9622" x2="338.347" y2="15.9622" gradientUnits="userSpaceOnUse">
<stop stop-color="#00F9B9"/>
<stop offset="0.49" stop-color="#9191FC"/>
<stop offset="1" stop-color="#FFCEFF"/>
</linearGradient>
<clipPath id="clip0_1825_1698">
<rect width="339" height="26" fill="white"/>
</clipPath>
</defs>
</svg>
